<?xml version="1.0" encoding="UTF-8" standalone="no"?>
<!-- Olivia Monogram — official "ai" ligature icon, extracted verbatim (unmodified geometry) from the Olivia Wordmark logo. Do not redraw or trace. -->
<svg xmlns="http://www.w3.org/2000/svg" viewBox="929.73 133.55 412.05 412.05" role="img" aria-label="Olivia">
  <style>
    path { fill: #1c1e21; }
    @media (prefers-color-scheme: dark) {
      path { fill: #ffffff; }
    }
  </style>
  <path  d="M 1114.1335,483.81053 C 1062.4006,474.42308 1021.5767,436.04329 1008.0463,384.07466 C 1004.1476,369.10006 1003.8601,338.02810999999997 1007.4775,322.5949 C 1013.0138,298.97522 1023.9318999999999,278.77616 1040.8141,260.92106 C 1059.5082,241.14948 1080.363,228.68866000000003 1106.7775000000001,221.50771 C 1121.8128000000002,217.42026 1153.9320000000002,217.45608000000001 1169.0114,221.57711 C 1182.3133,225.21238 1196.9588,232.08438 1207.6243000000002,239.69509 L 1215.8072000000002,245.53429 L 1218.1017000000002,239.07389 C 1226.1403000000003,216.4407 1260.5487000000003,214.42446 1271.1526000000001,235.96525 L 1274.3447,242.4498 L 1274.3447,351.78314 C 1274.3447,411.91647 1273.8795,462.7816 1273.3109000000002,464.81676 C 1271.9117,469.8247 1263.3241000000003,479.11412 1258.0542000000003,481.3203 C 1250.7604000000003,484.37377999999995 1238.3125000000002,483.62820999999997 1231.1065000000003,479.70624999999995 C 1223.9581000000003,475.81560999999994 1218.0122000000003,467.67557999999997 1216.8052000000002,460.12780999999995 C 1216.3645000000001,457.37157999999994 1215.7721000000001,455.11647999999997 1215.4888000000003,455.11647999999997 C 1215.2055000000003,455.11647999999997 1211.6195000000002,457.84853 1207.5198000000003,461.18771999999996 C 1196.8180000000002,469.90452999999997 1190.3520000000003,473.76243999999997 1179.0114000000003,478.19737 C 1160.3666000000003,485.48866 1135.3224000000002,487.65546 1114.1335000000004,483.81052 L 1114.1335,483.81053 M 1159.3894,427.54810000000003 C 1184.2445,420.16954000000004 1204.4798,399.88279000000006 1212.3531,374.44982000000005 C 1216.3738,361.46190000000007 1216.365,342.05015000000003 1212.3321,329.11648 C 1204.856,305.1378 1186.9622000000002,286.19743000000005 1163.6201,277.55538 C 1152.0469,273.27061000000003 1125.8509000000001,273.22823 1114.4348,277.47578 C 1091.2078,286.11782 1073.2533,304.21106 1065.4267,326.86252 C 1062.8053,334.44929 1062.3524,338.37482 1062.3982,353.11644 C 1062.4462,368.66292 1062.817,371.37414 1065.9926,379.41651 C 1081.2489,418.05394 1121.4984,438.79639000000003 1159.3890000000001,427.54806 L 1159.3894,427.54810000000003 M 1130.3447,388.61025000000006 C 1119.2584000000002,385.68264000000005 1110.9916,378.97055000000006 1105.5145,368.44982000000005 C 1101.1582,360.08206000000007 1101.0528,343.63752000000005 1105.304,335.62786000000006 C 1109.9111,326.9478700000001 1114.5939,322.18354000000005 1122.1534000000001,318.4850200000001 C 1137.1101,311.1673600000001 1152.1269000000002,313.05151000000006 1164.0117000000002,323.7370000000001 C 1184.2776000000003,341.9577900000001 1179.6474000000003,375.31772000000007 1155.3615000000002,386.0605500000001 C 1148.6883000000003,389.0124200000001 1136.5518000000002,390.2493700000001 1130.3447,388.61025000000006 M 1231.6156,190.68171 C 1223.999,187.74702000000002 1217.8647,183.01884 1213.8913,177.02022 C 1196.9731,151.4784 1214.5682,117.78314 1244.8239,117.78314 C 1258.7141000000001,117.78314 1270.3907000000002,124.36551 1277.2435,136.05891 C 1282.0226,144.21391 1283.1795,160.1337 1279.6622,169.34362 C 1276.4948,177.63730999999999 1269.1277,185.52508999999998 1261.0114,189.31268 C 1253.5251,192.80626 1238.8978000000002,193.48749 1231.6156,190.68171" transform="translate(-7.5687735,37.843867)" />
</svg>
