<?xml version="1.0" encoding="UTF-8" standalone="no"?>
<!-- Created with Inkscape (http://www.inkscape.org/) -->

<svg
   version="1.1"
   id="svg1"
   width="1384"
   height="678.66669"
   viewBox="0 0 1384 678.66669"
   xmlns="http://www.w3.org/2000/svg"
   xmlns:svg="http://www.w3.org/2000/svg">
  <defs
     id="defs1" />
  <path
     style="fill:currentColor"
     d="m 198.66464,483.76242 c -14.01949,-2.6557 -24.82217,-6.43266 -38.31991,-13.39786 C 99.270669,438.84866 72.263719,363.51863 99.278749,300.03424 115.56451,261.76327 148.99841,232.90079 189.5186,222.1329 c 17.70879,-4.70596 47.22022,-5.01602 63.7843,-0.67015 34.24184,8.98393 61.34109,27.69728 80.24942,55.41611 7.05727,10.34567 15.8211,30.129 19.04168,42.98436 4.27197,17.05217 4.27197,46.78769 0,63.83986 -3.20211,12.78165 -11.93462,32.53218 -19.00514,42.98436 -17.79058,26.29942 -48.11641,47.5728 -78.57746,55.1216 -15.03181,3.72516 -42.04912,4.66177 -56.34676,1.95338 z m 44.60126,-56.17764 c 17.41721,-5.17056 33.99869,-17.62135 43.98862,-33.03042 11.84982,-18.27787 15.72964,-45.2248 9.42175,-65.43788 -8.1791,-26.20918 -30.37812,-47.46884 -55.80224,-53.44094 -13.33778,-3.13303 -32.95856,-2.02821 -44.82936,2.52429 -18.6645,7.15789 -34.41937,21.42181 -42.83419,38.7806 -6.126,12.6372 -8.14807,21.72559 -8.03989,36.13605 0.15823,21.07837 6.93479,37.39882 22.23023,53.53856 10.2301,10.79479 24.51853,19.16449 36.94391,21.64053 4.03333,0.80373 8.53333,1.73242 10,2.06375 4.60787,1.04094 21.54053,-0.58349 28.92117,-2.77454 z m 870.8676,56.22575 c -51.7329,-9.38745 -92.5568,-47.76724 -106.0872,-99.73587 -3.8987,-14.9746 -4.1862,-46.04655 -0.5688,-61.47976 5.5363,-23.61968 16.4544,-43.81874 33.3366,-61.67384 18.6941,-19.77158 39.5489,-32.2324 65.9634,-39.41335 15.0353,-4.08745 47.1545,-4.05163 62.2339,0.0694 13.3019,3.63527 27.9474,10.50727 38.6129,18.11798 l 8.1829,5.8392 2.2945,-6.4604 c 8.0386,-22.63319 42.447,-24.64943 53.0509,-3.10864 l 3.1921,6.48455 v 109.33334 c 0,60.13333 -0.4652,110.99846 -1.0338,113.03362 -1.3992,5.00794 -9.9868,14.29736 -15.2567,16.50354 -7.2938,3.05348 -19.7417,2.30791 -26.9477,-1.61405 -7.1484,-3.89064 -13.0943,-12.03067 -14.3013,-19.57844 -0.4407,-2.75623 -1.0331,-5.01133 -1.3164,-5.01133 -0.2833,0 -3.8693,2.73205 -7.969,6.07124 -10.7018,8.71681 -17.1678,12.57472 -28.5084,17.00965 -18.6448,7.29129 -43.689,9.45809 -64.8779,5.61315 z m 45.2559,-56.26243 c 24.8551,-7.37856 45.0904,-27.66531 52.9637,-53.09828 4.0207,-12.98792 4.0119,-32.39967 -0.021,-45.33334 -7.4761,-23.97868 -25.3699,-42.91905 -48.712,-51.5611 -11.5732,-4.28477 -37.7692,-4.32715 -49.1853,-0.0796 -23.227,8.64204 -41.1815,26.73528 -49.0081,49.38674 -2.6214,7.58677 -3.0743,11.5123 -3.0285,26.25392 0.048,15.54648 0.4188,18.2577 3.5944,26.30007 15.2563,38.63743 55.5058,59.37988 93.3964,48.13155 z m -29.0447,-38.93785 c -11.0863,-2.92761 -19.3531,-9.6397 -24.8302,-20.16043 -4.3563,-8.36776 -4.4617,-24.8123 -0.2105,-32.82196 4.6071,-8.67999 9.2899,-13.44432 16.8494,-17.14284 14.9567,-7.31766 29.9735,-5.43351 41.8583,5.25198 20.2659,18.22079 15.6357,51.58072 -8.6502,62.32355 -6.6732,2.95187 -18.8097,4.18882 -25.0168,2.5497 z m -716.79026,91.40272 c -3.85916,-2.03816 -7.24948,-5.32045 -9.87638,-9.5617 l -4,-6.45817 -0.35432,-161.21788 c -0.24229,-110.24161 0.0916,-162.87409 1.05611,-166.45582 3.11427,-11.56552 14.66132,-19.86959 27.62924,-19.86959 15.01849,0 25.6009,9.03158 28.38034,24.22126 0.91807,5.01729 1.25466,60.32276 1.00216,164.66667 l -0.38019,157.11208 -2.87025,5.33333 c -5.69393,10.58016 -14.02559,15.33334 -26.87722,15.33334 -5.62868,0 -9.48687,-0.87341 -13.70949,-3.10352 z m 115.06191,0.26593 c -6.2965,-3.1167 -11.08406,-8.71542 -13.42082,-15.69471 -1.08442,-3.23891 -1.51747,-35.23878 -1.51747,-112.13437 0,-76.8956 0.43305,-108.89546 1.51747,-112.13438 4.00717,-11.96836 13.89297,-18.91238 27.1492,-19.07022 13.47594,-0.16045 23.8736,7.68946 27.36642,20.66081 0.88769,3.29661 1.23435,43.05077 0.99717,114.35112 l -0.36359,109.29767 -4.01783,5.78083 c -7.86867,11.32139 -24.79602,15.3358 -37.71055,8.94325 z m 194.83763,0.25574 c -10.09083,-4.58163 -15.06105,-11.35162 -25.65811,-34.94918 -14.78303,-32.91888 -74.49474,-168.30387 -79.59605,-180.46898 -5.02062,-11.97266 -5.75662,-20.46354 -2.45812,-28.35796 7.12358,-17.04912 30.65458,-22.67491 45.08615,-10.77919 5.78336,4.76714 8.32008,9.5054 19.92055,37.20895 24.57227,58.68203 55.78519,132.50245 56.76616,134.25536 0.80761,1.44311 2.31183,-0.88261 5.4565,-8.43646 28.92332,-69.47693 66.05275,-155.19598 68.76225,-158.74832 1.88792,-2.47518 5.64781,-5.61367 8.35533,-6.97442 21.70758,-10.90983 45.26516,4.51801 42.4982,27.83204 -0.39165,3.3 -5.31721,16.5 -10.94569,29.33333 -5.62847,12.83334 -13.11266,29.93334 -16.63154,38 -3.51888,8.06667 -12.22062,27.86667 -19.33721,44.00001 -7.11659,16.13333 -18.01033,40.98324 -24.20831,55.22202 -19.35514,44.46504 -23.38591,52.32372 -29.53815,57.58981 -3.05855,2.61801 -7.88516,5.45635 -10.7258,6.30743 -7.94819,2.38133 -21.32116,1.88276 -27.74616,-1.03444 z m 197.46314,0.0581 c -6.8808,-3.12519 -13.2524,-10.8057 -15.12129,-18.2276 -2.05294,-8.15297 -2.018,-211.81642 0.0377,-219.98051 0.8765,-3.48077 3.663,-8.3827 6.7749,-11.91797 13.3553,-15.17244 36.9657,-11.88237 46.8148,6.52358 l 2.92149,5.45957 v 108.00001 c 0,59.4 -0.4796,110.26283 -1.0658,113.02851 -1.3478,6.35935 -8.0022,14.00756 -14.9227,17.15151 -6.971,3.16686 -18.4217,3.15016 -25.4391,-0.0371 z M 528.86159,190.68171 c -10.18155,-3.84029 -18.50282,-12.54801 -21.8823,-22.89857 -2.30643,-7.06404 -2.01752,-20.37132 0.5771,-26.58112 7.55896,-18.09115 28.59052,-27.68465 47.16623,-21.51479 31.08685,10.32539 33.43647,55.46078 3.62211,69.5795 -7.48204,3.54315 -21.99428,4.23963 -29.48314,1.41498 z m 389.48313,-0.72169 c -12.97909,-5.91657 -20.62846,-17.27861 -21.66274,-32.17688 -1.07081,-15.42455 6.48884,-29.10742 20.07114,-36.32852 7.9811,-4.2432 25.8261,-4.26675 33.7626,-0.0446 22.1102,11.76255 26.9359,42.39146 9.5028,60.31481 -9.8934,10.17162 -29.0999,13.96702 -41.6738,8.23515 z m 313.27088,0.72169 c -7.6166,-2.93469 -13.7509,-7.66287 -17.7243,-13.66149 -16.9182,-25.54182 0.6769,-59.23708 30.9326,-59.23708 13.8902,0 25.5668,6.58237 32.4196,18.27577 4.7791,8.155 5.936,24.07479 2.4187,33.28471 -3.1674,8.29369 -10.5345,16.18147 -18.6508,19.96906 -7.4863,3.49358 -22.1136,4.17481 -29.3958,1.36903 z"
     id="path1"
     transform="translate(-7.5687735,37.843867)" />
</svg>
